<svg width="28" height="28" viewBox="0 0 28 28" fill="none" xmlns="http://www.w3.org/2000/svg">
<path d="M14.2756 28.0003C14.1829 28.0003 14.0901 28.0003 13.9968 27.9999C11.802 28.0052 9.77411 27.9495 7.80194 27.8294C5.99384 27.7194 4.34338 27.0945 3.02875 26.0226C1.76025 24.9882 0.894012 23.5896 0.454163 21.8661C0.0713502 20.3656 0.0510559 18.8927 0.0316162 17.468C0.0175171 16.4459 0.00299072 15.2346 0 14.0029C0.00299072 12.766 0.0175171 11.5547 0.0316162 10.5326C0.0510559 9.10811 0.0713502 7.63518 0.454163 6.13448C0.894012 4.41097 1.76025 3.01237 3.02875 1.97801C4.34338 0.90605 5.99384 0.281202 7.80215 0.171186C9.77432 0.0513436 11.8027 -0.00462568 14.0021 0.000714905C16.1975 -0.00398481 18.2248 0.0513436 20.197 0.171186C22.0051 0.281202 23.6555 0.90605 24.9702 1.97801C26.2389 3.01237 27.1049 4.41097 27.5448 6.13448C27.9276 7.63497 27.9479 9.10811 27.9673 10.5326C27.9814 11.5547 27.9962 12.766 27.9989 13.9977V14.0029C27.9962 15.2346 27.9814 16.4459 27.9673 17.468C27.9479 18.8925 27.9278 20.3654 27.5448 21.8661C27.1049 23.5896 26.2389 24.9882 24.9702 26.0226C23.6555 27.0945 22.0051 27.7194 20.197 27.8294C18.3083 27.9443 16.3682 28.0003 14.2756 28.0003ZM13.9968 25.8124C16.1559 25.8175 18.1383 25.763 20.0641 25.646C21.4313 25.5629 22.6167 25.1192 23.5878 24.3273C24.4855 23.5952 25.1037 22.5852 25.4252 21.3252C25.7439 20.0762 25.7623 18.735 25.78 17.4381C25.7939 16.4228 25.8084 15.2201 25.8114 14.0003C25.8084 12.7803 25.7939 11.5778 25.78 10.5625C25.7623 9.26555 25.7439 7.92443 25.4252 6.67516C25.1037 5.41521 24.4855 4.4052 23.5878 3.67311C22.6167 2.88142 21.4313 2.43773 20.0641 2.35463C18.1383 2.23735 16.1559 2.1833 14.0019 2.188C11.8433 2.18288 9.86063 2.23735 7.93481 2.35463C6.56763 2.43773 5.38223 2.88142 4.4111 3.67311C3.51346 4.4052 2.89523 5.41521 2.57373 6.67516C2.255 7.92443 2.23663 9.26534 2.2189 10.5625C2.20502 11.5787 2.19049 12.782 2.1875 14.0029C2.19049 15.2184 2.20502 16.4219 2.2189 17.4381C2.23663 18.735 2.255 20.0762 2.57373 21.3252C2.89523 22.5852 3.51346 23.5952 4.4111 24.3273C5.38223 25.119 6.56763 25.5627 7.93481 25.6458C9.86063 25.763 11.8437 25.8177 13.9968 25.8124ZM13.9447 20.8362C10.1755 20.8362 7.10873 17.7697 7.10873 14.0003C7.10873 10.2309 10.1755 7.16436 13.9447 7.16436C17.7141 7.16436 20.7806 10.2309 20.7806 14.0003C20.7806 17.7697 17.7141 20.8362 13.9447 20.8362ZM13.9447 9.35186C11.3816 9.35186 9.29623 11.4372 9.29623 14.0003C9.29623 16.5633 11.3816 18.6487 13.9447 18.6487C16.5079 18.6487 18.5931 16.5633 18.5931 14.0003C18.5931 11.4372 16.5079 9.35186 13.9447 9.35186ZM21.5462 4.97685C20.6403 4.97685 19.9056 5.71129 19.9056 6.61748C19.9056 7.52367 20.6403 8.25811 21.5462 8.25811C22.4524 8.25811 23.1869 7.52367 23.1869 6.61748C23.1869 5.71129 22.4524 4.97685 21.5462 4.97685Z" fill="white"/>
<path d="M14.2756 28.0003C14.1829 28.0003 14.0901 28.0003 13.9968 27.9999C11.802 28.0052 9.77411 27.9495 7.80194 27.8294C5.99384 27.7194 4.34338 27.0945 3.02875 26.0226C1.76025 24.9882 0.894012 23.5896 0.454163 21.8661C0.0713502 20.3656 0.0510559 18.8927 0.0316162 17.468C0.0175171 16.4459 0.00299072 15.2346 0 14.0029C0.00299072 12.766 0.0175171 11.5547 0.0316162 10.5326C0.0510559 9.10811 0.0713502 7.63518 0.454163 6.13448C0.894012 4.41097 1.76025 3.01237 3.02875 1.97801C4.34338 0.90605 5.99384 0.281202 7.80215 0.171186C9.77432 0.0513436 11.8027 -0.00462568 14.0021 0.000714905C16.1975 -0.00398481 18.2248 0.0513436 20.197 0.171186C22.0051 0.281202 23.6555 0.90605 24.9702 1.97801C26.2389 3.01237 27.1049 4.41097 27.5448 6.13448C27.9276 7.63497 27.9479 9.10811 27.9673 10.5326C27.9814 11.5547 27.9962 12.766 27.9989 13.9977V14.0029C27.9962 15.2346 27.9814 16.4459 27.9673 17.468C27.9479 18.8925 27.9278 20.3654 27.5448 21.8661C27.1049 23.5896 26.2389 24.9882 24.9702 26.0226C23.6555 27.0945 22.0051 27.7194 20.197 27.8294C18.3083 27.9443 16.3682 28.0003 14.2756 28.0003ZM13.9968 25.8124C16.1559 25.8175 18.1383 25.763 20.0641 25.646C21.4313 25.5629 22.6167 25.1192 23.5878 24.3273C24.4855 23.5952 25.1037 22.5852 25.4252 21.3252C25.7439 20.0762 25.7623 18.735 25.78 17.4381C25.7939 16.4228 25.8084 15.2201 25.8114 14.0003C25.8084 12.7803 25.7939 11.5778 25.78 10.5625C25.7623 9.26555 25.7439 7.92443 25.4252 6.67516C25.1037 5.41521 24.4855 4.4052 23.5878 3.67311C22.6167 2.88142 21.4313 2.43773 20.0641 2.35463C18.1383 2.23735 16.1559 2.1833 14.0019 2.188C11.8433 2.18288 9.86063 2.23735 7.93481 2.35463C6.56763 2.43773 5.38223 2.88142 4.4111 3.67311C3.51346 4.4052 2.89523 5.41521 2.57373 6.67516C2.255 7.92443 2.23663 9.26534 2.2189 10.5625C2.20502 11.5787 2.19049 12.782 2.1875 14.0029C2.19049 15.2184 2.20502 16.4219 2.2189 17.4381C2.23663 18.735 2.255 20.0762 2.57373 21.3252C2.89523 22.5852 3.51346 23.5952 4.4111 24.3273C5.38223 25.119 6.56763 25.5627 7.93481 25.6458C9.86063 25.763 11.8437 25.8177 13.9968 25.8124ZM13.9447 20.8362C10.1755 20.8362 7.10873 17.7697 7.10873 14.0003C7.10873 10.2309 10.1755 7.16436 13.9447 7.16436C17.7141 7.16436 20.7806 10.2309 20.7806 14.0003C20.7806 17.7697 17.7141 20.8362 13.9447 20.8362ZM13.9447 9.35186C11.3816 9.35186 9.29623 11.4372 9.29623 14.0003C9.29623 16.5633 11.3816 18.6487 13.9447 18.6487C16.5079 18.6487 18.5931 16.5633 18.5931 14.0003C18.5931 11.4372 16.5079 9.35186 13.9447 9.35186ZM21.5462 4.97685C20.6403 4.97685 19.9056 5.71129 19.9056 6.61748C19.9056 7.52367 20.6403 8.25811 21.5462 8.25811C22.4524 8.25811 23.1869 7.52367 23.1869 6.61748C23.1869 5.71129 22.4524 4.97685 21.5462 4.97685Z" fill="white"/>
</svg>
