<svg width="220" height="66" viewBox="0 0 220 66" fill="none" xmlns="http://www.w3.org/2000/svg">
<path d="M173.64 47C174.013 47 174.313 47.1133 174.54 47.34C174.767 47.5667 174.88 47.86 174.88 48.22V59.78C174.88 60.1267 174.76 60.42 174.52 60.66C174.28 60.8867 173.973 61 173.6 61C173.267 61 172.98 60.8867 172.74 60.66C172.5 60.42 172.38 60.1267 172.38 59.78V55.12H166V59.78C166 60.1267 165.873 60.42 165.62 60.66C165.367 60.8867 165.073 61 164.74 61C164.38 61 164.08 60.8867 163.84 60.66C163.613 60.42 163.5 60.1267 163.5 59.78V48.22C163.5 47.8733 163.62 47.5867 163.86 47.36C164.1 47.12 164.407 47 164.78 47C165.113 47 165.4 47.12 165.64 47.36C165.88 47.5867 166 47.8733 166 48.22V52.82H172.38V48.22C172.38 47.8733 172.507 47.5867 172.76 47.36C173.013 47.12 173.307 47 173.64 47ZM190.755 54C190.755 55.32 190.462 56.5333 189.875 57.64C189.288 58.7333 188.475 59.6 187.435 60.24C186.408 60.88 185.248 61.2 183.955 61.2C182.662 61.2 181.495 60.88 180.455 60.24C179.428 59.6 178.622 58.7333 178.035 57.64C177.462 56.5333 177.175 55.32 177.175 54C177.175 52.68 177.462 51.4733 178.035 50.38C178.622 49.2733 179.428 48.4 180.455 47.76C181.495 47.12 182.662 46.8 183.955 46.8C185.248 46.8 186.408 47.12 187.435 47.76C188.475 48.4 189.288 49.2733 189.875 50.38C190.462 51.4733 190.755 52.68 190.755 54ZM188.155 54C188.155 53.1067 187.975 52.3 187.615 51.58C187.255 50.8467 186.755 50.2667 186.115 49.84C185.475 49.4133 184.755 49.2 183.955 49.2C183.142 49.2 182.415 49.4133 181.775 49.84C181.148 50.2533 180.655 50.8267 180.295 51.56C179.948 52.2933 179.775 53.1067 179.775 54C179.775 54.8933 179.948 55.7067 180.295 56.44C180.655 57.1733 181.148 57.7533 181.775 58.18C182.415 58.5933 183.142 58.8 183.955 58.8C184.755 58.8 185.475 58.5867 186.115 58.16C186.755 57.7333 187.255 57.16 187.615 56.44C187.975 55.7067 188.155 54.8933 188.155 54ZM197.551 61.2C196.591 61.2 195.737 61.08 194.991 60.84C194.244 60.6 193.544 60.1933 192.891 59.62C192.531 59.3 192.351 58.9467 192.351 58.56C192.351 58.2533 192.464 57.9867 192.691 57.76C192.917 57.52 193.191 57.4 193.511 57.4C193.764 57.4 193.991 57.48 194.191 57.64C194.724 58.08 195.244 58.4 195.751 58.6C196.257 58.8 196.857 58.9 197.551 58.9C198.297 58.9 198.937 58.7333 199.471 58.4C200.017 58.0667 200.291 57.6533 200.291 57.16C200.291 56.56 200.024 56.0933 199.491 55.76C198.957 55.4133 198.111 55.1533 196.951 54.98C194.031 54.5533 192.571 53.1933 192.571 50.9C192.571 50.06 192.791 49.3333 193.231 48.72C193.671 48.0933 194.271 47.62 195.031 47.3C195.791 46.9667 196.637 46.8 197.571 46.8C198.411 46.8 199.197 46.9267 199.931 47.18C200.677 47.4333 201.297 47.7667 201.791 48.18C202.177 48.4867 202.371 48.84 202.371 49.24C202.371 49.5467 202.257 49.82 202.031 50.06C201.804 50.2867 201.537 50.4 201.231 50.4C201.031 50.4 200.851 50.34 200.691 50.22C200.344 49.94 199.857 49.6867 199.231 49.46C198.617 49.22 198.064 49.1 197.571 49.1C196.731 49.1 196.077 49.26 195.611 49.58C195.157 49.8867 194.931 50.2933 194.931 50.8C194.931 51.3733 195.164 51.8067 195.631 52.1C196.111 52.3933 196.857 52.6333 197.871 52.82C199.017 53.02 199.931 53.28 200.611 53.6C201.304 53.9067 201.824 54.3333 202.171 54.88C202.517 55.4133 202.691 56.1267 202.691 57.02C202.691 57.86 202.451 58.6 201.971 59.24C201.504 59.8667 200.877 60.3533 200.091 60.7C199.304 61.0333 198.457 61.2 197.551 61.2ZM214.184 47C214.544 47 214.838 47.1067 215.064 47.32C215.291 47.5333 215.404 47.8133 215.404 48.16C215.404 48.5067 215.291 48.7867 215.064 49C214.838 49.2 214.544 49.3 214.184 49.3H211.044V59.78C211.044 60.1267 210.918 60.42 210.664 60.66C210.411 60.8867 210.098 61 209.724 61C209.351 61 209.044 60.8867 208.804 60.66C208.564 60.42 208.444 60.1267 208.444 59.78V49.3H205.304C204.944 49.3 204.651 49.1933 204.424 48.98C204.198 48.7667 204.084 48.4867 204.084 48.14C204.084 47.8067 204.198 47.5333 204.424 47.32C204.664 47.1067 204.958 47 205.304 47H214.184Z" fill="#BDDBFF"/>
<path d="M107.6 13.36C108.427 13.7867 108.84 14.4667 108.84 15.4C108.84 15.96 108.64 16.5067 108.24 17.04C107.813 17.6 107.267 17.88 106.6 17.88C106.147 17.88 105.693 17.76 105.24 17.52C103.933 16.9067 102.52 16.6 101 16.6C99.1333 16.6 97.5067 17 96.12 17.8C94.7333 18.5733 93.6667 19.68 92.92 21.12C92.1733 22.5333 91.8 24.16 91.8 26C91.8 29.1467 92.64 31.5333 94.32 33.16C96.0267 34.7867 98.2533 35.6 101 35.6C102.627 35.6 104.04 35.2933 105.24 34.68C105.72 34.4667 106.147 34.36 106.52 34.36C107.213 34.36 107.8 34.6533 108.28 35.24C108.68 35.7467 108.88 36.2933 108.88 36.88C108.88 37.3067 108.773 37.6933 108.56 38.04C108.347 38.3867 108.04 38.6533 107.64 38.84C105.56 39.88 103.347 40.4 101 40.4C98.3867 40.4 95.9867 39.8533 93.8 38.76C91.6133 37.64 89.8667 36 88.56 33.84C87.2533 31.68 86.6 29.0667 86.6 26C86.6 23.28 87.2133 20.84 88.44 18.68C89.6933 16.52 91.4133 14.84 93.6 13.64C95.7867 12.4133 98.2533 11.8 101 11.8C103.373 11.8 105.573 12.32 107.6 13.36ZM128.518 35.32C129.211 35.32 129.785 35.5467 130.238 36C130.718 36.4267 130.958 36.9867 130.958 37.68C130.958 38.3467 130.718 38.9067 130.238 39.36C129.785 39.7867 129.211 40 128.518 40H115.518C114.825 40 114.238 39.7733 113.758 39.32C113.305 38.84 113.078 38.2533 113.078 37.56V14.44C113.078 13.7467 113.318 13.1733 113.798 12.72C114.278 12.24 114.891 12 115.638 12C116.305 12 116.878 12.24 117.358 12.72C117.838 13.1733 118.078 13.7467 118.078 14.44V35.32H128.518ZM160.908 26C160.908 28.64 160.322 31.0667 159.148 33.28C157.975 35.4667 156.348 37.2 154.268 38.48C152.215 39.76 149.895 40.4 147.308 40.4C144.722 40.4 142.388 39.76 140.308 38.48C138.255 37.2 136.642 35.4667 135.468 33.28C134.322 31.0667 133.748 28.64 133.748 26C133.748 23.36 134.322 20.9467 135.468 18.76C136.642 16.5467 138.255 14.8 140.308 13.52C142.388 12.24 144.722 11.6 147.308 11.6C149.895 11.6 152.215 12.24 154.268 13.52C156.348 14.8 157.975 16.5467 159.148 18.76C160.322 20.9467 160.908 23.36 160.908 26ZM155.708 26C155.708 24.2133 155.348 22.6 154.628 21.16C153.908 19.6933 152.908 18.5333 151.628 17.68C150.348 16.8267 148.908 16.4 147.308 16.4C145.682 16.4 144.228 16.8267 142.948 17.68C141.695 18.5067 140.708 19.6533 139.988 21.12C139.295 22.5867 138.948 24.2133 138.948 26C138.948 27.7867 139.295 29.4133 139.988 30.88C140.708 32.3467 141.695 33.5067 142.948 34.36C144.228 35.1867 145.682 35.6 147.308 35.6C148.908 35.6 150.348 35.1733 151.628 34.32C152.908 33.4667 153.908 32.32 154.628 30.88C155.348 29.4133 155.708 27.7867 155.708 26ZM185.38 11.96C186.073 11.96 186.633 12.1867 187.06 12.64C187.487 13.0933 187.7 13.68 187.7 14.4V28.88C187.7 31.0933 187.233 33.0533 186.3 34.76C185.367 36.4667 184.06 37.8 182.38 38.76C180.7 39.72 178.78 40.2 176.62 40.2C174.46 40.2 172.527 39.72 170.82 38.76C169.14 37.8 167.833 36.4667 166.9 34.76C165.967 33.0533 165.5 31.0933 165.5 28.88V14.4C165.5 13.7067 165.74 13.1333 166.22 12.68C166.7 12.2 167.313 11.96 168.06 11.96C168.7 11.96 169.26 12.2 169.74 12.68C170.22 13.1333 170.46 13.7067 170.46 14.4V28.88C170.46 30.16 170.74 31.3067 171.3 32.32C171.86 33.3067 172.607 34.0667 173.54 34.6C174.5 35.1333 175.527 35.4 176.62 35.4C177.767 35.4 178.833 35.1333 179.82 34.6C180.833 34.0667 181.633 33.3067 182.22 32.32C182.833 31.3067 183.14 30.16 183.14 28.88V14.4C183.14 13.68 183.34 13.0933 183.74 12.64C184.14 12.1867 184.687 11.96 185.38 11.96ZM205.703 12C208.21 12 210.356 12.6267 212.143 13.88C213.956 15.1067 215.33 16.7867 216.263 18.92C217.223 21.0267 217.703 23.3867 217.703 26C217.703 28.6133 217.223 30.9867 216.263 33.12C215.33 35.2267 213.956 36.9067 212.143 38.16C210.356 39.3867 208.21 40 205.703 40H196.143C195.45 40 194.863 39.7733 194.383 39.32C193.93 38.84 193.703 38.2533 193.703 37.56V14.44C193.703 13.7467 193.93 13.1733 194.383 12.72C194.863 12.24 195.45 12 196.143 12H205.703ZM205.303 35.4C207.703 35.4 209.503 34.52 210.703 32.76C211.903 30.9733 212.503 28.72 212.503 26C212.503 23.28 211.89 21.04 210.663 19.28C209.463 17.4933 207.676 16.6 205.303 16.6H198.703V35.4H205.303Z" fill="white"/>
<g clip-path="url(#clip0_1_1336)">
<path d="M32.9954 50.0056L31.9957 53.0046H27.997L26.9974 50.0056H32.9954Z" fill="#BDDBFF"/>
<path d="M50.9893 35.0106C55.5742 35.0174 59.4309 31.5757 59.9434 27.0196C60.4559 22.4635 57.4608 18.2505 52.9887 17.2386C52.9887 17.1635 52.9887 17.0898 52.9887 17.0166C52.9843 13.1536 49.854 10.0233 45.991 10.0189C45.2329 10.0184 44.4798 10.1434 43.7627 10.3899C41.4896 7.37376 37.8248 5.73808 34.0614 6.05975C30.298 6.38191 26.9646 8.61603 25.2362 11.9743C21.8765 9.64596 17.5015 9.37652 13.8816 11.2758C10.2622 13.1746 7.9973 16.9277 8.00364 21.0152V21.0704C3.2562 21.5975 -0.251909 25.7431 0.0141153 30.513C0.279652 35.2824 4.22658 39.0127 9.00331 39.0092H21.999V37.0099H9.00331C5.13887 36.9962 2.01687 33.8523 2.03102 29.9873C2.04469 26.1224 5.18866 23.0009 9.05359 23.0146C9.33621 23.0146 9.60516 22.895 9.79504 22.6856C9.98443 22.4762 10.0762 22.196 10.0484 21.9148C10.0191 21.6151 10.003 21.3154 10.003 21.0152C10 17.0224 12.631 13.506 16.4623 12.3814C20.2935 11.2568 24.4074 12.7938 26.5629 16.155C26.8358 16.5792 27.382 16.7334 27.8364 16.5148C28.5095 16.1872 29.248 16.0169 29.9963 16.0169C32.7557 16.0203 34.9917 18.2564 34.9947 21.0152C34.9937 21.3096 34.9659 21.6029 34.9117 21.8919C34.8629 22.1643 34.9288 22.4449 35.0942 22.6665C35.2597 22.8886 35.5096 23.0321 35.7844 23.0629C38.965 23.4241 41.4944 25.8979 41.9274 29.0692C42.3604 32.2405 40.5861 35.3015 37.6188 36.5023L38.3685 38.3547C40.0452 37.6791 41.4788 36.514 42.4824 35.0106H50.9893ZM36.994 21.2412C36.994 21.1651 36.994 21.0904 36.994 21.0152C36.9896 17.1522 33.8593 14.0219 29.9963 14.0176C29.2378 14.0171 28.4836 14.1415 27.7651 14.3866C27.4771 14.0088 27.1647 13.6495 26.8304 13.3117C28.1791 10.3069 31.0673 8.28362 34.3523 8.04298C37.6368 7.80233 40.7891 9.38286 42.5615 12.1593C42.8353 12.5854 43.3844 12.7392 43.8399 12.5171C44.5096 12.1886 45.2456 12.0177 45.991 12.0182C47.4734 12.007 48.8836 12.6591 49.8344 13.7964C50.7853 14.9333 51.1777 16.4362 50.9044 17.8932C50.857 18.1651 50.9239 18.4443 51.0889 18.6649C51.2544 18.8856 51.5033 19.0281 51.7772 19.0588C55.4712 19.4703 58.1988 22.6973 57.9894 26.408C57.78 30.1186 54.7064 33.0186 50.9893 33.0112H43.463C44.3333 30.5936 44.123 27.9182 42.8851 25.6665C41.6472 23.4143 39.5019 21.8026 36.994 21.2412V21.2412Z" fill="white"/>
<path d="M50.6965 41.3014L47.6974 38.3024C47.3074 37.9124 46.6744 37.9124 46.2839 38.3024L43.2849 41.3014L44.6984 42.715L45.991 41.4224V49.0059H47.9903V41.4224L49.2829 42.715L50.6965 41.3014Z" fill="white"/>
<path d="M45.991 51.0052H47.9903V53.0046H45.991V51.0052Z" fill="white"/>
<path d="M45.991 55.0039H47.9903V57.0032H45.991V55.0039Z" fill="white"/>
<path d="M53.2815 44.3004L50.2825 47.2994L51.6961 48.713L52.9887 47.4205V55.0039H54.988V47.4205L56.2805 48.713L57.6941 47.2994L54.6951 44.3004C54.3051 43.9104 53.672 43.9104 53.2815 44.3004Z" fill="white"/>
<path d="M52.9886 57.0033H54.988V59.0026H52.9886V57.0033Z" fill="white"/>
<path d="M52.9886 61.002H54.988V63.0013H52.9886V61.002Z" fill="white"/>
<path d="M12.2952 41.3014L9.2962 44.3004L10.7098 45.714L12.0023 44.4215V52.0049H14.0017V44.4215L15.2942 45.714L16.7078 44.3004L13.7088 41.3014C13.3188 40.9114 12.6857 40.9114 12.2952 41.3014Z" fill="white"/>
<path d="M12.0023 54.0043H14.0017V56.0036H12.0023V54.0043Z" fill="white"/>
<path d="M12.0023 58.0029H14.0017V60.0023H12.0023V58.0029Z" fill="white"/>
<path d="M5.29752 47.2995L2.29852 50.2985L3.71212 51.7121L5.00465 50.4195V58.0029H7.00399V50.4195L8.29653 51.7121L9.71012 50.2985L6.71112 47.2995C6.32111 46.9095 5.68802 46.9095 5.29752 47.2995Z" fill="white"/>
<path d="M5.00464 60.0022H7.00397V62.0015H5.00464V60.0022Z" fill="white"/>
<path d="M5.00464 64.001H7.00397V66.0003H5.00464V64.001Z" fill="white"/>
<path d="M38.4168 44.9555C38.0239 43.9192 37.0936 43.1826 35.9943 43.0381V37.1949C35.9987 36.1942 35.6985 35.216 35.1338 34.3897C32.1387 30.0122 30.5264 30.0122 29.9963 30.0122C29.4667 30.0122 27.8535 30.0122 24.8594 34.3887C24.2951 35.2156 23.9949 36.1942 23.9983 37.1949V43.0381C22.9 43.1826 21.9697 43.9187 21.5763 44.9545L19.5701 50.3058C19.3407 50.9193 19.4266 51.6066 19.8 52.145C20.1734 52.6834 20.787 53.0046 21.4425 53.0046H24.998C25.3772 53.005 25.7233 52.7908 25.8927 52.452L26.4125 51.4123L27.0486 53.3204C26.3745 54.0516 25.9996 55.0093 25.9976 56.0036C25.9976 58.0629 27.5552 62.0016 29.9963 62.0016C32.4379 62.0016 33.995 58.0629 33.995 56.0036C33.9925 55.0098 33.6167 54.053 32.9426 53.3228L33.5791 51.4133L34.099 52.454C34.2693 52.7922 34.6159 53.0055 34.9946 53.0046H38.5506C39.2061 53.0046 39.8197 52.6834 40.1931 52.145C40.5665 51.6066 40.6524 50.9193 40.423 50.3058L38.4168 44.9555ZM28.7179 52.0049L28.3841 51.0052H31.6091L31.2752 52.0049H28.7179ZM25.9976 37.1949C25.9947 36.5974 26.1729 36.0127 26.5087 35.5187C28.407 32.7442 29.6205 32.0115 29.9963 32.0115C30.3722 32.0115 31.5861 32.7442 33.4844 35.5197C33.8202 36.0131 33.9984 36.5974 33.995 37.1949V49.0059H30.996V43.0079H28.9966V49.0059H25.9976V37.1949ZM21.4425 51.0052L23.4477 45.6559C23.5473 45.4021 23.7464 45.2 23.9983 45.0965V50.0056C24.0022 50.3433 24.1794 50.6552 24.4674 50.8315L24.3805 51.0052H21.4425ZM29.9963 60.0022C29.249 60.0022 27.997 57.4982 27.997 56.0036C27.997 54.8994 28.8922 54.0042 29.9963 54.0042C31.1009 54.0042 31.9956 54.8994 31.9956 56.0036C31.9956 57.5031 30.7441 60.0022 29.9963 60.0022V60.0022ZM35.6126 51.0052L35.5257 50.8315C35.8137 50.6552 35.9904 50.3433 35.9943 50.0056V45.0965C36.2467 45.1995 36.4458 45.4021 36.5444 45.6559L38.5506 51.0052H35.6126Z" fill="white"/>
<path d="M29.9963 40.0089C31.653 40.0089 32.9953 38.6661 32.9953 37.0099C32.9953 35.3537 31.653 34.0109 29.9963 34.0109C28.3401 34.0109 26.9973 35.3537 26.9973 37.0099C26.9973 38.6661 28.3401 40.0089 29.9963 40.0089V40.0089ZM29.9963 36.0102C30.5489 36.0102 30.996 36.4578 30.996 37.0099C30.996 37.5619 30.5489 38.0095 29.9963 38.0095C29.4443 38.0095 28.9966 37.5619 28.9966 37.0099C28.9966 36.4578 29.4443 36.0102 29.9963 36.0102Z" fill="white"/>
</g>
<defs>
<clipPath id="clip0_1_1336">
<rect width="60" height="60" fill="white" transform="translate(0 6)"/>
</clipPath>
</defs>
</svg>
