<svg width="60" height="63" viewBox="0 0 60 63" fill="none" xmlns="http://www.w3.org/2000/svg">
<path d="M50.9894 30.4722C55.5743 30.4793 59.4309 26.8938 59.9434 22.1474C60.456 17.401 57.4609 13.0121 52.9887 11.958C52.9887 11.8797 52.9887 11.8029 52.9887 11.7266C52.9843 7.70227 49.854 4.44122 45.9911 4.43665C45.233 4.43614 44.4798 4.56632 43.7628 4.82311C41.4896 1.68105 37.8248 -0.022955 34.0614 0.312151C30.298 0.647765 26.9647 2.9752 25.2362 6.47372C21.8765 4.04815 17.5015 3.76745 13.8816 5.74605C10.2622 7.72414 7.99736 11.634 8.0037 15.8923V15.9497C3.25626 16.4989 -0.251848 20.8177 0.0141763 25.7868C0.279713 30.7554 4.22664 34.6414 9.00337 34.6379H21.999V32.555H9.00337C5.13894 32.5408 2.01693 29.2655 2.03108 25.2391C2.04475 21.2128 5.18872 17.9609 9.05365 17.9751C9.33627 17.9751 9.60522 17.8505 9.7951 17.6324C9.98449 17.4142 10.0763 17.1224 10.0484 16.8295C10.0191 16.5172 10.003 16.205 10.003 15.8923C10.0001 11.7327 12.6311 8.06942 16.4623 6.89782C20.2936 5.72622 24.4074 7.3275 26.563 10.8291C26.8358 11.271 27.382 11.4317 27.8365 11.2038C28.5096 10.8626 29.2481 10.6852 29.9964 10.6852C32.7557 10.6887 34.9918 13.0182 34.9947 15.8923C34.9937 16.1989 34.9659 16.5045 34.9117 16.8056C34.8629 17.0893 34.9288 17.3817 35.0943 17.6126C35.2598 17.8439 35.5097 17.9934 35.7845 18.0255C38.9651 18.4018 41.4945 20.9789 41.9275 24.2826C42.3604 27.5864 40.5861 30.7752 37.6188 32.0262L38.3686 33.9559C40.0453 33.2522 41.4789 32.0384 42.4825 30.4722H50.9894ZM36.994 16.1277C36.994 16.0484 36.994 15.9706 36.994 15.8923C36.9897 11.868 33.8594 8.60691 29.9964 8.60233C29.2378 8.60182 28.4837 8.73149 27.7652 8.98676C27.4772 8.59318 27.1648 8.21892 26.8304 7.86703C28.1791 4.73666 31.0673 2.62891 34.3524 2.37821C37.6369 2.12752 40.7892 3.77406 42.5615 6.66645C42.8354 7.11037 43.3845 7.27055 43.8399 7.03918C44.5096 6.69696 45.2457 6.51898 45.9911 6.51949C47.4735 6.50779 48.8836 7.18716 49.8345 8.37198C50.7854 9.55629 51.1778 11.122 50.9045 12.6399C50.8571 12.9231 50.924 13.214 51.089 13.4438C51.2544 13.6737 51.5034 13.8221 51.7772 13.8542C55.4713 14.2829 58.1989 17.6446 57.9895 21.5103C57.7801 25.3759 54.7064 28.397 50.9894 28.3893H43.4631C44.3334 25.8707 44.123 23.0836 42.8852 20.7378C41.6473 18.3916 39.502 16.7125 36.994 16.1277Z" fill="white"/>
<path d="M50.6965 37.0266L47.6975 33.9024C47.3075 33.4961 46.6744 33.4961 46.2839 33.9024L43.2849 37.0266L44.6985 38.4993L45.9911 37.1528V45.0529H47.9904V37.1528L49.283 38.4993L50.6965 37.0266Z" fill="white"/>
<path d="M45.9911 47.1357H47.9904V49.2186H45.9911V47.1357Z" fill="white"/>
<path d="M45.9911 51.3014H47.9904V53.3842H45.9911V51.3014Z" fill="white"/>
<path d="M53.2816 40.1509L50.2826 43.2752L51.6962 44.7478L52.9887 43.4013V51.3014H54.9881V43.4013L56.2806 44.7478L57.6942 43.2752L54.6952 40.1509C54.3052 39.7446 53.6721 39.7446 53.2816 40.1509Z" fill="white"/>
<path d="M52.9887 53.3843H54.9881V55.4671H52.9887V53.3843Z" fill="white"/>
<path d="M52.9887 57.5499H54.9881V59.6328H52.9887V57.5499Z" fill="white"/>
<path d="M12.2952 37.0266L9.29623 40.1509L10.7098 41.6235L12.0024 40.277V48.1772H14.0017V40.277L15.2942 41.6235L16.7078 40.1509L13.7088 37.0266C13.3188 36.6203 12.6857 36.6203 12.2952 37.0266Z" fill="white"/>
<path d="M12.0024 50.26H14.0017V52.3428H12.0024V50.26Z" fill="white"/>
<path d="M12.0024 54.4257H14.0017V56.5085H12.0024V54.4257Z" fill="white"/>
<path d="M5.29759 43.2752L2.29858 46.3994L3.71218 47.8721L5.00471 46.5255V54.4257H7.00405V46.5255L8.29659 47.8721L9.71018 46.3994L6.71118 43.2752C6.32117 42.8689 5.68808 42.8689 5.29759 43.2752Z" fill="white"/>
<path d="M5.0047 56.5085H7.00403V58.5914H5.0047V56.5085Z" fill="white"/>
<path d="M5.0047 60.6742H7.00403V62.757H5.0047V60.6742Z" fill="white"/>
<path d="M38.4169 40.8333C38.024 39.7537 37.0936 38.9864 35.9944 38.8359V32.7485C35.9988 31.7061 35.6986 30.6871 35.1338 29.8262C32.1387 25.2659 30.5265 25.2659 29.9964 25.2659C29.4668 25.2659 27.8535 25.2659 24.8594 29.8251C24.2951 30.6865 23.995 31.7061 23.9984 32.7485V38.8359C22.9001 38.9864 21.9698 39.7532 21.5763 40.8323L19.5702 46.407C19.3407 47.0462 19.4267 47.7622 19.8001 48.3231C20.1735 48.884 20.787 49.2186 21.4426 49.2186H24.998C25.3773 49.2191 25.7234 48.9958 25.8928 48.6429L26.4126 47.5598L27.0486 49.5476C26.3745 50.3093 25.9997 51.307 25.9977 52.3428C25.9977 54.4882 27.5553 58.5913 29.9964 58.5913C32.4379 58.5913 33.995 54.4882 33.995 52.3428C33.9926 51.3075 33.6168 50.3108 32.9427 49.5501L33.5792 47.5608L34.099 48.645C34.2694 48.9974 34.6159 49.2196 34.9947 49.2186H38.5507C39.2062 49.2186 39.8198 48.884 40.1932 48.3231C40.5666 47.7622 40.6525 47.0462 40.4231 46.407L38.4169 40.8333ZM28.718 48.1771L28.3841 47.1357H31.6091L31.2752 48.1771H28.718ZM25.9977 32.7485C25.9948 32.1261 26.1729 31.5169 26.5088 31.0023C28.4071 28.112 29.6205 27.3487 29.9964 27.3487C30.3722 27.3487 31.5862 28.112 33.4845 31.0033C33.8203 31.5174 33.9985 32.1261 33.995 32.7485V45.0529H30.996V38.8043H28.9967V45.0529H25.9977V32.7485ZM21.4426 47.1357L23.4478 41.563C23.5474 41.2986 23.7465 41.088 23.9984 40.9802V46.0943C24.0023 46.4462 24.1795 46.7711 24.4675 46.9547L24.3806 47.1357H21.4426ZM29.9964 56.5085C29.2491 56.5085 27.997 53.8999 27.997 52.3428C27.997 51.1926 28.8923 50.26 29.9964 50.26C31.101 50.26 31.9957 51.1926 31.9957 52.3428C31.9957 53.905 30.7442 56.5085 29.9964 56.5085ZM35.6127 47.1357L35.5258 46.9547C35.8138 46.7711 35.9905 46.4462 35.9944 46.0943V40.9802C36.2467 41.0875 36.4459 41.2986 36.5445 41.563L38.5507 47.1357H35.6127Z" fill="white"/>
<path d="M29.9964 35.68C31.653 35.68 32.9954 34.2811 32.9954 32.5558C32.9954 30.8304 31.653 29.4315 29.9964 29.4315C28.3402 29.4315 26.9974 30.8304 26.9974 32.5558C26.9974 34.2811 28.3402 35.68 29.9964 35.68ZM29.9964 31.5144C30.5489 31.5144 30.996 31.9807 30.996 32.5558C30.996 33.1309 30.5489 33.5972 29.9964 33.5972C29.4443 33.5972 28.9967 33.1309 28.9967 32.5558C28.9967 31.9807 29.4443 31.5144 29.9964 31.5144Z" fill="white"/>
</svg>
