<svg width="98" height="98" viewBox="0 0 98 98" fill="none" xmlns="http://www.w3.org/2000/svg">
<path d="M88.4297 0H55.3629C54.3058 0 53.4489 0.856926 53.4489 1.91406V17.503C53.4489 18.3005 53.9434 19.0147 54.6903 19.2949C55.4366 19.5749 56.2792 19.363 56.8042 18.7622C57.9025 17.5053 59.491 16.8424 61.1585 16.9402C63.8259 17.0985 65.9766 19.2266 66.1613 21.89C66.2656 23.3942 65.7605 24.8256 64.739 25.9204C63.7163 27.0166 62.328 27.6201 60.8299 27.6201C59.2887 27.6201 57.8213 26.9525 56.8042 25.7885C56.2794 25.1877 55.4368 24.9755 54.6903 25.2559C53.9436 25.5361 53.4489 26.2502 53.4489 27.0478V27.5499C52.083 26.568 50.4388 25.9503 48.6597 25.8444C47.2257 25.7593 45.8271 26.0033 44.5511 26.5391V14.6399C44.5511 13.5828 43.6942 12.7258 42.6371 12.7258H9.57031C4.29324 12.7258 0 17.0191 0 22.2961V88.4297C0 93.7068 4.29324 98 9.57031 98H75.7039C80.9809 98 85.2742 93.7068 85.2742 88.4297V84.3378C85.2742 83.2807 84.4172 82.4237 83.3601 82.4237C82.303 82.4237 81.446 83.2807 81.446 84.3378V88.4297C81.446 91.5959 78.8701 94.1719 75.7039 94.1719H44.5511V80.497C44.5511 79.6995 44.0566 78.9853 43.3097 78.7051C42.563 78.4245 41.7204 78.637 41.1958 79.2378C40.1787 80.4019 38.7113 81.0695 37.1701 81.0695C35.672 81.0695 34.2837 80.4658 33.261 79.3699C32.2395 78.275 31.7342 76.8435 31.8385 75.3392C32.0232 72.6756 34.1739 70.5477 36.8413 70.3895C38.5085 70.2907 40.0973 70.9543 41.1958 72.2115C41.7206 72.8121 42.5628 73.0242 43.3097 72.7441C44.0564 72.4639 44.5511 71.7498 44.5511 70.9522V57.2774H54.5426C54.0744 58.39 53.8253 59.5963 53.8253 60.8302C53.8253 63.3641 54.8882 65.8091 56.7416 67.5383C58.621 69.2919 61.0737 70.1592 63.6489 69.9808C68.2262 69.6633 71.883 65.9684 72.155 61.3859C72.24 59.9519 71.9963 58.5533 71.4604 57.2774H81.4458V67.1116C81.4458 68.1688 82.3028 69.0257 83.3599 69.0257C84.417 69.0257 85.274 68.1688 85.274 67.1116V55.3633C85.274 54.3062 84.417 53.4492 83.3599 53.4492H83.1756C84.2829 51.9017 84.8975 50.0292 84.8975 48.1044C84.8975 46.8704 84.6485 45.6642 84.1803 44.5515H96.0859C97.1431 44.5515 98 43.6946 98 42.6375V9.57031C98 4.29324 93.7068 0 88.4297 0V0ZM3.82812 22.2961C3.82812 19.1299 6.40407 16.554 9.57031 16.554H40.723V30.2288C40.723 31.0264 41.2176 31.7405 41.9645 32.0207C42.7106 32.3008 43.5533 32.0887 44.0784 31.4881C45.1765 30.2313 46.7644 29.5673 48.4327 29.6661C51.0999 29.8245 53.2508 31.9524 53.4355 34.616C53.5398 36.1203 53.0347 37.5516 52.0129 38.6466C50.9902 39.7426 49.602 40.3463 48.1038 40.3463C46.5626 40.3463 45.0953 39.6787 44.0784 38.5148C43.5533 37.9138 42.7108 37.7017 41.9645 37.9821C41.2176 38.2623 40.723 38.9764 40.723 39.774V53.4489H30.7314C31.1996 52.3362 31.4486 51.13 31.4486 49.896C31.4486 47.3621 30.3857 44.9173 28.5324 43.1879C26.6529 41.4345 24.1999 40.5676 21.6255 40.7454C17.048 41.063 13.3912 44.7579 13.1192 49.3401C13.034 50.7741 13.2779 52.1729 13.8136 53.4487H3.82812V22.2961ZM36.6145 66.5678C32.0322 66.8398 28.3371 70.4968 28.0198 75.0741C27.8412 77.6487 28.7086 80.1018 30.4621 81.981C32.1915 83.8344 34.6365 84.8973 37.1701 84.8973C38.4041 84.8973 39.6102 84.6485 40.723 84.1801V94.1719H9.57031C6.40407 94.1719 3.82812 91.5959 3.82812 88.4297V57.277H17.503C18.3005 57.277 19.0147 56.7824 19.2949 56.0355C19.5751 55.2887 19.3628 54.4463 18.7622 53.9216C17.5053 52.8235 16.8413 51.2364 16.9402 49.5673C17.0985 46.8999 19.2266 44.7492 21.89 44.5645C23.3942 44.4604 24.8256 44.9653 25.9206 45.9871C27.0166 47.0098 27.6203 48.398 27.6203 49.8962C27.6203 51.4374 26.9527 52.9047 25.7887 53.9216C25.1881 54.4465 24.9758 55.2888 25.2561 56.0355C25.5363 56.7824 26.2504 57.277 27.048 57.277H40.7228V67.2625C39.4471 66.7263 38.0483 66.4821 36.6145 66.5678V66.5678ZM66.5118 56.8044C67.7685 57.9025 68.4327 59.4896 68.3338 61.1587C68.1755 63.8259 66.0474 65.9766 63.384 66.1615C61.8799 66.265 60.4482 65.7607 59.3534 64.739C58.2572 63.7163 57.6537 62.328 57.6537 60.8299C57.6537 59.2887 58.3213 57.8213 59.4852 56.8042C60.0859 56.2794 60.2981 55.437 60.0179 54.6903C59.7377 53.9436 59.0236 53.4489 58.226 53.4489H44.5513V43.4574C45.664 43.9256 46.8702 44.1746 48.1042 44.1746C50.029 44.1746 51.9017 43.56 53.449 42.4528V42.6373C53.449 43.6944 54.306 44.5513 55.3631 44.5513H67.2626C66.7267 45.8272 66.483 47.2259 66.568 48.6599C66.6737 50.4392 67.2914 52.0832 68.2733 53.449H67.7712C66.9736 53.449 66.2595 53.9436 65.9793 54.6905C65.6989 55.4372 65.9111 56.2796 66.5118 56.8044V56.8044ZM94.1719 40.723H80.4972C79.6996 40.723 78.9855 41.2176 78.7053 41.9645C78.4251 42.7112 78.6373 43.5535 79.238 44.0784C80.4021 45.0953 81.0695 46.5626 81.0695 48.1038C81.0695 49.602 80.4658 50.9902 79.3699 52.0129C78.275 53.0345 76.8435 53.5398 75.3392 53.4355C72.6756 53.2508 70.5477 51.0999 70.3895 48.4327C70.2903 46.7636 70.9545 45.1765 72.2113 44.0782C72.8119 43.5533 73.0242 42.711 72.7439 41.9643C72.4637 41.2176 71.7496 40.7228 70.952 40.7228H57.2774V30.7312C58.39 31.1994 59.5963 31.4484 60.8302 31.4484C63.3641 31.4484 65.8091 30.3855 67.5383 28.5322C69.2919 26.6527 70.1592 24.1999 69.9806 21.6253C69.6631 17.0478 65.9682 13.391 61.3859 13.119C59.9513 13.0336 58.5531 13.2777 57.2774 13.8136V3.82812H88.4297C91.5959 3.82812 94.1719 6.40407 94.1719 9.57031V40.723Z" fill="#267FE5"/>
<path d="M83.3594 73.8101C82.856 73.8101 82.3622 74.0149 82.0062 74.3709C81.6501 74.7269 81.4453 75.2207 81.4453 75.7241C81.4453 76.2275 81.6501 76.7213 82.0062 77.0774C82.3622 77.4334 82.856 77.6382 83.3594 77.6382C83.8628 77.6382 84.3566 77.4334 84.7126 77.0774C85.0706 76.7213 85.2735 76.2275 85.2735 75.7241C85.2735 75.2207 85.0706 74.7269 84.7126 74.3709C84.3566 74.0149 83.8647 73.8101 83.3594 73.8101Z" fill="#267FE5"/>
</svg>
