<svg width="90" height="90" viewBox="0 0 90 90" fill="none" xmlns="http://www.w3.org/2000/svg">
<g clip-path="url(#clip0_23_1364)">
<path d="M45.0496 40.826C43.3927 40.826 42.0495 42.1692 42.0495 43.8261C42.0493 45.0241 42.7534 46.055 43.7685 46.536V50.1829C43.7685 50.8902 44.3419 51.4638 45.0494 51.4638C45.7569 51.4638 46.3303 50.8904 46.3303 50.1829V46.536C47.3456 46.055 48.0497 45.0241 48.0497 43.8261C48.0497 42.1692 46.7065 40.826 45.0496 40.826Z" fill="#267FE5"/>
<path d="M77.0165 19.5379C71.5024 17.3559 67.1258 13.3372 64.6928 8.22234C64.0312 6.83138 62.601 5.93243 61.0491 5.93243H28.9511C27.3993 5.93243 25.9691 6.8312 25.3075 8.22234C22.8747 13.3372 18.4979 17.3559 12.9838 19.5379C11.4371 20.1498 10.4378 21.6243 10.4378 23.294V31.1008C10.4378 41.3346 13.422 51.444 19.0679 60.3364C24.7687 69.3158 33.0294 76.8201 42.9563 82.0376L43.118 82.1227C43.7074 82.4324 44.3537 82.5873 45.0002 82.5873C45.6464 82.5873 46.2929 82.4324 46.882 82.1229L47.0442 82.0376C56.9713 76.8199 65.2318 69.3158 70.9327 60.3364C76.5785 51.4438 79.5627 41.3344 79.5627 31.1008V23.294C79.5627 21.6241 78.563 20.1498 77.0165 19.5379ZM77.001 31.101C77.001 40.8475 74.1548 50.4821 68.7701 58.9635C63.3087 67.5656 55.3838 74.7605 45.8528 79.7702L45.6905 79.8553C45.2583 80.0828 44.7422 80.0826 44.3098 79.8553L44.148 79.7704C34.6167 74.7606 26.6917 67.5657 21.2302 58.9635C15.8455 50.4823 12.9993 40.8475 12.9993 31.1008V23.294C12.9993 22.6821 13.3631 22.1426 13.9262 21.9199C20.0451 19.4987 24.9084 15.0249 27.6206 9.32273C27.8598 8.81947 28.3821 8.49427 28.9509 8.49427H61.0492C61.6181 8.49427 62.1401 8.81947 62.3796 9.32273C65.0919 15.0249 69.9554 19.4987 76.0741 21.9201C76.6372 22.1428 77.001 22.6823 77.001 23.2942V31.101Z" fill="#267FE5"/>
<path d="M83.4386 43.2563C82.7486 43.1002 82.0627 43.5331 81.907 44.2233C78.006 61.4809 66.1253 76.4475 49.3108 85.2852L45.4034 87.3391C45.1511 87.4716 44.8498 87.4716 44.5976 87.3391L40.6901 85.2852C23.8492 76.4336 11.9626 61.4412 8.07797 44.1524C7.92311 43.4623 7.23756 43.0283 6.54762 43.1835C5.8575 43.3386 5.42367 44.0237 5.57871 44.7139C9.62801 62.7369 21.9912 78.351 39.4983 87.5526L43.4058 89.6065C43.9052 89.8687 44.4527 90 45.0005 90C45.548 90 46.0959 89.8687 46.5952 89.6063L50.5026 87.5525C67.9821 78.3652 80.3392 62.7782 84.4057 44.7879C84.5615 44.0979 84.1285 43.4122 83.4386 43.2563Z" fill="#267FE5"/>
<path d="M82.815 14.6561C75.9755 13.9345 70.5976 9.13377 69.7368 2.98178C69.499 1.2818 68.0381 0 66.3387 0H23.6618C21.9625 0 20.5016 1.2818 20.2637 2.98178C19.4028 9.13395 14.0249 13.9345 7.18561 14.6561C5.45259 14.8389 4.14565 16.303 4.14565 18.0615V31.8154C4.14565 33.814 4.24919 35.8346 4.45345 37.8213C4.5213 38.4804 5.07747 38.9712 5.7261 38.9712C5.76987 38.9712 5.81417 38.9689 5.85864 38.9644C6.56229 38.8921 7.07417 38.263 7.00175 37.5594C6.80645 35.6593 6.70731 33.7268 6.70731 31.8154V18.0615C6.70731 17.6247 7.0355 17.2477 7.45438 17.2035C15.4658 16.3584 21.7763 10.656 22.8008 3.33668C22.8637 2.88756 23.2257 2.56166 23.6618 2.56166H66.3385C66.7746 2.56166 67.1369 2.88756 67.1996 3.33668C68.2237 10.656 74.5344 16.3582 82.5459 17.2035C82.9647 17.2477 83.2929 17.6247 83.2929 18.0615V31.8154C83.2929 33.7066 83.1959 35.6191 83.0046 37.5001C82.9331 38.2038 83.4457 38.8324 84.1493 38.9039C84.8526 38.976 85.4816 38.4629 85.5533 37.7592C85.7533 35.7926 85.8546 33.7929 85.8546 31.8154V18.0615C85.8548 16.303 84.548 14.8389 82.815 14.6561Z" fill="#267FE5"/>
<path d="M59.671 31.9685H57.5649V25.8544C57.5649 18.9534 51.9507 13.3392 45.0495 13.3392C38.1485 13.3392 32.534 18.9534 32.534 25.8544V31.9685H30.4282C28.1821 31.9685 26.3546 33.7959 26.3546 36.042V54.3811C26.3546 56.6272 28.1821 58.4547 30.4282 58.4547H59.671C61.9171 58.4547 63.7445 56.6272 63.7445 54.3811V36.042C63.7445 33.7959 61.9171 31.9685 59.671 31.9685ZM35.0959 25.8546C35.0959 20.3662 39.5611 15.901 45.0497 15.901C50.5383 15.901 55.0035 20.3662 55.0035 25.8546V31.9686H35.0959V25.8546ZM61.1829 54.3811C61.1829 55.2147 60.5045 55.893 59.671 55.893H30.4282C29.5945 55.893 28.9163 55.2147 28.9163 54.3811V36.042C28.9163 35.2085 29.5946 34.5301 30.4282 34.5301H59.671C60.5045 34.5301 61.1829 35.2083 61.1829 36.042V54.3811Z" fill="#267FE5"/>
</g>
<defs>
<clipPath id="clip0_23_1364">
<rect width="90" height="90" fill="white"/>
</clipPath>
</defs>
</svg>
