<svg width="61" height="85" viewBox="0 0 61 85" fill="none" xmlns="http://www.w3.org/2000/svg">
<path d="M24.8535 7.08341C25.7035 7.08341 26.2701 6.51679 26.2701 5.66679V1.41679C26.2701 0.566794 25.7035 0.000183105 24.8535 0.000183105C24.0035 0.000183105 23.4369 0.566794 23.4369 1.41679V5.66679C23.4369 6.51663 24.0035 7.08341 24.8535 7.08341Z" fill="#267FE5"/>
<path d="M9.4121 17H13.6621C14.3705 17 15.0787 16.4334 15.0787 15.5834C15.0787 14.7334 14.5121 14.1667 13.6621 14.1667H9.4121C8.5621 14.1667 7.99548 14.7334 7.99548 15.5834C7.99548 16.4334 8.5621 17 9.4121 17Z" fill="#267FE5"/>
<path d="M33.3536 15.5834C33.3536 16.4334 33.9202 17 34.7702 17H39.0202C39.7286 17 40.4369 16.4334 40.4369 15.5834C40.4369 14.7334 39.8702 14.1667 39.0202 14.1667H34.7702C33.9204 14.1666 33.3536 14.7334 33.3536 15.5834Z" fill="#267FE5"/>
<path d="M31.9372 9.91662C32.3622 9.91662 32.6456 9.775 32.9288 9.49162L35.7622 6.65823C36.3288 6.09162 36.3288 5.24162 35.7622 4.67484C35.1956 4.10806 34.3456 4.10823 33.7788 4.67484L30.9454 7.50823C30.3788 8.07484 30.3788 8.92484 30.9454 9.49162C31.2288 9.775 31.5122 9.91662 31.9372 9.91662Z" fill="#267FE5"/>
<path d="M15.5034 9.49163C15.7868 9.77502 16.07 9.91663 16.495 9.91663C16.7784 9.91663 17.2034 9.77502 17.4866 9.49163C18.0532 8.92502 18.0532 8.07502 17.4866 7.50824L14.6534 4.67502C14.0868 4.10841 13.2368 4.10841 12.67 4.67502C12.1034 5.24163 12.1034 6.09163 12.67 6.65841L15.5034 9.49163Z" fill="#267FE5"/>
<path d="M53.8953 38.25C52.6203 38.25 51.3453 38.675 50.3537 39.3834V38.9584C50.3537 35.4168 47.5203 32.5834 43.9787 32.5834C42.7037 32.5834 41.4287 33.0084 40.4371 33.7167V33.2917C40.4371 29.7501 37.6037 26.9167 34.0621 26.9167C32.7871 26.9167 31.5121 27.3417 30.5205 28.0501V16.4334C30.5205 12.8917 27.6871 9.91675 24.1455 9.91675C20.6039 9.91675 17.7705 12.8917 17.7705 16.4334V44.4834C14.7955 40.0917 8.84547 37.825 4.31208 39.6668C3.60369 39.9501 3.03708 40.3751 2.61208 40.5167C0.628691 41.9334 0.770469 43.4917 0.770469 44.0584C0.628858 44.9084 0.770468 45.05 2.61208 47.175C4.73708 49.725 9.27047 55.1084 12.1037 60.4916C12.2453 60.6332 15.5037 65.875 19.1871 69.9832V73.6666C19.1871 80.325 24.4287 85 31.9371 85H44.5455C50.4955 85 55.1705 81.6 56.3039 76.3584C56.6181 74.8914 56.9324 74.0458 57.1894 73.5894C57.2712 73.478 57.3536 73.3624 57.4372 73.2416C58.7122 71.825 60.2706 68.2832 60.2706 63.4666V44.625C60.2703 41.0834 57.4369 38.25 53.8953 38.25ZM44.5453 82.1666H31.9369C26.9785 82.1666 22.0203 79.475 22.0203 73.6666V73.2842C22.4236 73.7111 22.8479 74.1251 23.2953 74.5166C23.4369 74.6582 23.8619 74.8 24.1453 74.8C24.5703 74.8 24.8537 74.5166 25.1369 74.2334C25.7035 73.6667 25.5619 72.8167 24.9953 72.25C24.0037 71.4 23.2953 70.4084 22.4453 69.4166C22.3037 69.1332 22.0203 68.7082 21.7369 68.425C21.6189 68.2676 21.4563 68.1444 21.2721 68.0587C17.8414 64.1272 14.5119 58.9334 14.5119 58.9334C11.5369 53.4084 6.86191 47.8834 4.73691 45.1917C4.31191 44.7667 3.88691 44.2001 3.60353 43.9167C3.60353 43.6334 3.60353 43.3501 4.17014 42.9251C4.73675 42.6417 5.02014 42.5001 5.30352 42.3585C8.42014 41.0835 13.6619 42.7835 15.9285 46.7501L17.721 49.7376C17.7424 49.9237 17.8042 50.1123 17.9119 50.2917L19.3285 53.125C19.6119 53.55 20.0369 53.8334 20.6035 53.8334C20.8869 53.8334 21.1701 53.8334 21.1701 53.6917C21.8785 53.4084 22.1617 52.5584 21.7367 51.8501L20.6034 49.5835V16.4334C20.6034 14.45 22.3034 12.75 24.145 12.75C26.1284 12.75 27.6866 14.45 27.6866 16.4334V33.0084C27.6866 33.0084 27.6866 33.15 27.6866 33.2917V34.0001V51.0001C27.6866 51.8501 28.2532 52.4167 29.1032 52.4167C29.9532 52.4167 30.5198 51.8501 30.5198 51.0001V34V33.0084C30.6614 31.1667 32.2198 29.75 34.0614 29.75C36.0448 29.75 37.603 31.3084 37.603 33.2916V38.25V38.9584V49.5834C37.603 50.4334 38.1696 51 39.0196 51C39.8696 51 40.4362 50.4334 40.4362 49.5834V38.9584C40.4362 36.975 41.9946 35.4167 43.9779 35.4167C45.9611 35.4167 47.5195 36.9751 47.5195 38.9584V43.9167V44.6251V49.7251C47.5195 50.5751 48.0861 51.1417 48.9361 51.1417C49.7861 51.1417 50.3527 50.5751 50.3527 49.7251V44.625C50.3527 42.6416 51.9111 41.0834 53.8943 41.0834C55.8777 41.0834 57.4359 42.6417 57.4359 44.625V63.325C57.4359 67.6215 56.0804 70.4253 55.3584 71.3407C55.289 71.4003 55.2253 71.467 55.1693 71.5416C54.3193 72.675 54.0359 73.1 51.3443 73.8082C50.6359 73.9498 50.2109 74.7998 50.3527 75.5082C50.6361 76.0748 51.2027 76.4998 51.7693 76.4998C51.9109 76.4998 52.0527 76.4998 52.0527 76.6414C52.5358 76.5096 52.9676 76.3813 53.3574 76.2516C52.184 80.5783 47.968 82.1666 44.5453 82.1666Z" fill="#267FE5"/>
</svg>
