<svg width="21" height="22" viewBox="0 0 21 22" fill="none" xmlns="http://www.w3.org/2000/svg">
<g clip-path="url(#clip0_12_1361)">
<path d="M6.195 9.26342L4.725 10.7334L9.45 15.4584L19.95 4.95842L18.48 3.48842L9.45 12.5184L6.195 9.26342ZM18.9 11.2584C18.9 15.8784 15.12 19.6584 10.5 19.6584C5.88 19.6584 2.1 15.8784 2.1 11.2584C2.1 6.63842 5.88 2.85842 10.5 2.85842C11.34 2.85842 12.075 2.96342 12.81 3.17342L14.49 1.49342C13.23 1.07342 11.865 0.758423 10.5 0.758423C4.725 0.758423 0 5.48342 0 11.2584C0 17.0334 4.725 21.7584 10.5 21.7584C16.275 21.7584 21 17.0334 21 11.2584H18.9Z" fill="white"/>
</g>
<defs>
<clipPath id="clip0_12_1361">
<rect width="21" height="21" fill="white" transform="translate(0 0.758423)"/>
</clipPath>
</defs>
</svg>
